<svg width="512" height="192" viewBox="0 0 512 192" fill="none" xmlns="http://www.w3.org/2000/svg">
<path d="M1.404 18V6.336H7.416C8.856 6.336 9.96 6.606 10.728 7.146C11.496 7.674 11.88 8.442 11.88 9.45C11.88 10.098 11.73 10.614 11.43 10.998C11.13 11.37 10.71 11.652 10.17 11.844C9.63 12.024 8.988 12.138 8.244 12.186L8.316 12.078C8.856 12.09 9.366 12.138 9.846 12.222C10.326 12.294 10.746 12.426 11.106 12.618C11.478 12.81 11.766 13.08 11.97 13.428C12.186 13.764 12.294 14.202 12.294 14.742C12.294 15.462 12.114 16.056 11.754 16.524C11.394 16.992 10.89 17.352 10.242 17.604C9.606 17.844 8.868 17.976 8.028 18H1.404ZM3.474 16.236H7.74C8.52 16.236 9.12 16.104 9.54 15.84C9.972 15.564 10.188 15.138 10.188 14.562C10.188 14.118 10.056 13.794 9.792 13.59C9.54 13.386 9.204 13.254 8.784 13.194C8.364 13.134 7.926 13.104 7.47 13.104H3.474V16.236ZM3.474 11.376H7.29C8.07 11.376 8.67 11.244 9.09 10.98C9.522 10.704 9.738 10.278 9.738 9.702C9.738 9.126 9.522 8.718 9.09 8.478C8.67 8.226 8.118 8.1 7.434 8.1H3.474V11.376ZM21.719 15.048H23.681C23.585 15.66 23.339 16.206 22.943 16.686C22.559 17.154 22.043 17.526 21.395 17.802C20.747 18.066 19.967 18.198 19.055 18.198C18.011 18.198 17.087 18.012 16.283 17.64C15.479 17.256 14.843 16.716 14.375 16.02C13.919 15.324 13.691 14.496 13.691 13.536C13.691 12.588 13.913 11.76 14.357 11.052C14.813 10.344 15.437 9.798 16.229 9.414C17.021 9.03 17.939 8.838 18.983 8.838C20.051 8.838 20.945 9.03 21.665 9.414C22.397 9.786 22.937 10.35 23.285 11.106C23.633 11.85 23.777 12.792 23.717 13.932H15.743C15.803 14.436 15.971 14.886 16.247 15.282C16.523 15.678 16.895 15.99 17.363 16.218C17.831 16.446 18.383 16.56 19.019 16.56C19.715 16.56 20.297 16.422 20.765 16.146C21.245 15.858 21.563 15.492 21.719 15.048ZM18.929 10.476C18.101 10.476 17.423 10.674 16.895 11.07C16.367 11.466 16.025 11.976 15.869 12.6H21.683C21.623 11.928 21.347 11.406 20.855 11.034C20.363 10.662 19.721 10.476 18.929 10.476ZM29.5289 18.198C28.7009 18.198 27.9449 18 27.2609 17.604C26.5769 17.208 26.0309 16.662 25.6229 15.966C25.2269 15.258 25.0289 14.448 25.0289 13.536C25.0289 12.6 25.2329 11.784 25.6409 11.088C26.0489 10.38 26.6009 9.828 27.2969 9.432C28.0049 9.036 28.7969 8.838 29.6729 8.838C30.6449 8.838 31.4129 9.048 31.9769 9.468C32.5409 9.888 32.9429 10.452 33.1829 11.16C33.4349 11.868 33.5609 12.66 33.5609 13.536C33.5609 14.04 33.4889 14.562 33.3449 15.102C33.2009 15.642 32.9729 16.146 32.6609 16.614C32.3489 17.082 31.9349 17.466 31.4189 17.766C30.9029 18.054 30.2729 18.198 29.5289 18.198ZM30.1589 16.542C30.8309 16.542 31.4069 16.41 31.8869 16.146C32.3669 15.882 32.7269 15.528 32.9669 15.084C33.2189 14.628 33.3449 14.112 33.3449 13.536C33.3449 12.9 33.2189 12.36 32.9669 11.916C32.7149 11.46 32.3489 11.112 31.8689 10.872C31.4009 10.632 30.8309 10.512 30.1589 10.512C29.1869 10.512 28.4369 10.794 27.9089 11.358C27.3809 11.91 27.1169 12.636 27.1169 13.536C27.1169 14.124 27.2429 14.646 27.4949 15.102C27.7589 15.546 28.1189 15.9 28.5749 16.164C29.0309 16.416 29.5589 16.542 30.1589 16.542ZM33.3449 9.036H35.3789V18H33.4889C33.4889 18 33.4769 17.886 33.4529 17.658C33.4289 17.43 33.4049 17.148 33.3809 16.812C33.3569 16.476 33.3449 16.158 33.3449 15.858V9.036ZM47.0226 18H44.9886V9.036H47.0226V18ZM45.0966 13.734L45.1146 14.31C45.1026 14.466 45.0546 14.7 44.9706 15.012C44.8866 15.324 44.7546 15.666 44.5746 16.038C44.4066 16.398 44.1786 16.746 43.8906 17.082C43.6026 17.406 43.2426 17.676 42.8106 17.892C42.3906 18.096 41.8866 18.198 41.2986 18.198C40.8546 18.198 40.4106 18.138 39.9666 18.018C39.5346 17.91 39.1386 17.724 38.7786 17.46C38.4186 17.196 38.1306 16.836 37.9146 16.38C37.6986 15.912 37.5906 15.33 37.5906 14.634V9.036H39.6246V14.256C39.6246 14.82 39.7146 15.264 39.8946 15.588C40.0746 15.912 40.3326 16.14 40.6686 16.272C41.0166 16.404 41.4186 16.47 41.8746 16.47C42.5106 16.47 43.0506 16.326 43.4946 16.038C43.9386 15.738 44.2926 15.378 44.5566 14.958C44.8326 14.526 45.0126 14.118 45.0966 13.734ZM48.6149 9.036H55.0049V10.692H48.6149V9.036ZM50.7929 6.624H52.8269V18H50.7929V6.624ZM55.765 9.036H57.925L61.579 17.64L59.815 18L55.765 9.036ZM65.845 9.036L60.049 21.6H57.907L60.391 16.686L63.667 9.036H65.845ZM70.9425 14.112H72.9945C73.0305 14.556 73.2045 14.958 73.5165 15.318C73.8285 15.666 74.2365 15.942 74.7405 16.146C75.2565 16.338 75.8445 16.434 76.5045 16.434C77.0925 16.434 77.5785 16.362 77.9625 16.218C78.3465 16.074 78.6345 15.876 78.8265 15.624C79.0185 15.372 79.1145 15.066 79.1145 14.706C79.1145 14.358 79.0005 14.088 78.7725 13.896C78.5565 13.704 78.2145 13.542 77.7465 13.41C77.2785 13.278 76.6845 13.146 75.9645 13.014C75.3645 12.894 74.7885 12.744 74.2365 12.564C73.6845 12.384 73.1865 12.156 72.7425 11.88C72.3105 11.604 71.9685 11.268 71.7165 10.872C71.4645 10.476 71.3385 10.002 71.3385 9.45C71.3385 8.814 71.5125 8.244 71.8605 7.74C72.2205 7.236 72.7485 6.84 73.4445 6.552C74.1525 6.264 75.0165 6.12 76.0365 6.12C77.5725 6.12 78.7425 6.474 79.5465 7.182C80.3625 7.878 80.7585 8.832 80.7345 10.044H78.7545C78.7065 9.288 78.4245 8.748 77.9085 8.424C77.3925 8.088 76.7385 7.92 75.9465 7.92C75.2265 7.92 74.6265 8.046 74.1465 8.298C73.6665 8.538 73.4265 8.94 73.4265 9.504C73.4265 9.732 73.4805 9.936 73.5885 10.116C73.7085 10.284 73.9005 10.44 74.1645 10.584C74.4405 10.716 74.8065 10.848 75.2625 10.98C75.7305 11.1 76.3065 11.226 76.9905 11.358C77.5665 11.466 78.1065 11.604 78.6105 11.772C79.1265 11.928 79.5705 12.138 79.9425 12.402C80.3265 12.654 80.6265 12.978 80.8425 13.374C81.0585 13.77 81.1665 14.256 81.1665 14.832C81.1665 15.492 80.9985 16.08 80.6625 16.596C80.3265 17.1 79.8105 17.502 79.1145 17.802C78.4185 18.09 77.5185 18.234 76.4145 18.234C75.5745 18.234 74.8425 18.138 74.2185 17.946C73.6065 17.742 73.0785 17.484 72.6345 17.172C72.2025 16.848 71.8545 16.5 71.5905 16.128C71.3265 15.756 71.1405 15.396 71.0325 15.048C70.9365 14.688 70.9065 14.376 70.9425 14.112ZM82.3649 9.036H88.7549V10.692H82.3649V9.036ZM84.5429 6.624H86.5769V18H84.5429V6.624ZM99.757 18H97.723V9.036H99.757V18ZM97.831 13.734L97.849 14.31C97.837 14.466 97.789 14.7 97.705 15.012C97.621 15.324 97.489 15.666 97.309 16.038C97.141 16.398 96.913 16.746 96.625 17.082C96.337 17.406 95.977 17.676 95.545 17.892C95.125 18.096 94.621 18.198 94.033 18.198C93.589 18.198 93.145 18.138 92.701 18.018C92.269 17.91 91.873 17.724 91.513 17.46C91.153 17.196 90.865 16.836 90.649 16.38C90.433 15.912 90.325 15.33 90.325 14.634V9.036H92.359V14.256C92.359 14.82 92.449 15.264 92.629 15.588C92.809 15.912 93.067 16.14 93.403 16.272C93.751 16.404 94.153 16.47 94.609 16.47C95.245 16.47 95.785 16.326 96.229 16.038C96.673 15.738 97.027 15.378 97.291 14.958C97.567 14.526 97.747 14.118 97.831 13.734ZM106.011 18.198C105.171 18.198 104.409 18 103.725 17.604C103.041 17.208 102.501 16.662 102.105 15.966C101.709 15.258 101.511 14.448 101.511 13.536C101.511 12.6 101.703 11.784 102.087 11.088C102.483 10.38 103.017 9.828 103.689 9.432C104.373 9.036 105.147 8.838 106.011 8.838C106.767 8.838 107.403 8.964 107.919 9.216C108.447 9.456 108.861 9.792 109.161 10.224C109.473 10.644 109.695 11.136 109.827 11.7C109.971 12.264 110.043 12.876 110.043 13.536C110.043 14.04 109.971 14.562 109.827 15.102C109.683 15.642 109.455 16.146 109.143 16.614C108.831 17.082 108.417 17.466 107.901 17.766C107.385 18.054 106.755 18.198 106.011 18.198ZM106.641 16.542C107.313 16.542 107.889 16.41 108.369 16.146C108.849 15.882 109.209 15.528 109.449 15.084C109.701 14.628 109.827 14.112 109.827 13.536C109.827 12.9 109.701 12.36 109.449 11.916C109.197 11.46 108.831 11.112 108.351 10.872C107.883 10.62 107.313 10.494 106.641 10.494C105.669 10.494 104.919 10.776 104.391 11.34C103.863 11.904 103.599 12.636 103.599 13.536C103.599 14.124 103.725 14.646 103.977 15.102C104.241 15.546 104.601 15.9 105.057 16.164C105.513 16.416 106.041 16.542 106.641 16.542ZM109.827 5.436H111.861V18H109.971C109.947 17.724 109.917 17.382 109.881 16.974C109.845 16.566 109.827 16.194 109.827 15.858V5.436ZM116.801 5.22V7.164H114.371V5.22H116.801ZM114.551 9.036H116.603V18H114.551V9.036ZM123.783 18.198C122.775 18.198 121.875 18.018 121.083 17.658C120.291 17.298 119.661 16.77 119.193 16.074C118.737 15.378 118.509 14.532 118.509 13.536C118.509 12.552 118.737 11.712 119.193 11.016C119.661 10.308 120.291 9.768 121.083 9.396C121.875 9.024 122.775 8.838 123.783 8.838C124.791 8.838 125.685 9.024 126.465 9.396C127.257 9.768 127.881 10.308 128.337 11.016C128.793 11.712 129.021 12.552 129.021 13.536C129.021 14.532 128.793 15.378 128.337 16.074C127.881 16.77 127.257 17.298 126.465 17.658C125.685 18.018 124.791 18.198 123.783 18.198ZM123.783 16.56C124.371 16.56 124.905 16.446 125.385 16.218C125.865 15.978 126.249 15.636 126.537 15.192C126.825 14.736 126.969 14.184 126.969 13.536C126.969 12.9 126.825 12.354 126.537 11.898C126.249 11.43 125.865 11.076 125.385 10.836C124.917 10.596 124.383 10.476 123.783 10.476C123.207 10.476 122.673 10.596 122.181 10.836C121.701 11.076 121.311 11.424 121.011 11.88C120.723 12.336 120.579 12.888 120.579 13.536C120.579 14.184 120.723 14.736 121.011 15.192C121.299 15.636 121.683 15.978 122.163 16.218C122.655 16.446 123.195 16.56 123.783 16.56ZM134.343 9.144H140.895V10.782H134.343V9.144ZM139.545 5.436H141.057V7.182H139.905C139.581 7.17 139.293 7.206 139.041 7.29C138.789 7.374 138.591 7.53 138.447 7.758C138.315 7.986 138.249 8.31 138.249 8.73V18H136.215V8.532C136.215 7.812 136.347 7.224 136.611 6.768C136.875 6.312 137.253 5.976 137.745 5.76C138.249 5.544 138.849 5.436 139.545 5.436ZM142.409 9.036H144.443V18H142.409V9.036ZM147.701 10.764C147.041 10.764 146.477 10.902 146.009 11.178C145.553 11.454 145.181 11.79 144.893 12.186C144.617 12.582 144.431 12.96 144.335 13.32L144.317 12.312C144.317 12.18 144.353 11.982 144.425 11.718C144.497 11.442 144.611 11.142 144.767 10.818C144.923 10.494 145.127 10.182 145.379 9.882C145.643 9.57 145.967 9.318 146.351 9.126C146.735 8.934 147.185 8.838 147.701 8.838V10.764ZM154 18.198C152.992 18.198 152.092 18.018 151.3 17.658C150.508 17.298 149.878 16.77 149.41 16.074C148.954 15.378 148.726 14.532 148.726 13.536C148.726 12.552 148.954 11.712 149.41 11.016C149.878 10.308 150.508 9.768 151.3 9.396C152.092 9.024 152.992 8.838 154 8.838C155.008 8.838 155.902 9.024 156.682 9.396C157.474 9.768 158.098 10.308 158.554 11.016C159.01 11.712 159.238 12.552 159.238 13.536C159.238 14.532 159.01 15.378 158.554 16.074C158.098 16.77 157.474 17.298 156.682 17.658C155.902 18.018 155.008 18.198 154 18.198ZM154 16.56C154.588 16.56 155.122 16.446 155.602 16.218C156.082 15.978 156.466 15.636 156.754 15.192C157.042 14.736 157.186 14.184 157.186 13.536C157.186 12.9 157.042 12.354 156.754 11.898C156.466 11.43 156.082 11.076 155.602 10.836C155.134 10.596 154.6 10.476 154 10.476C153.424 10.476 152.89 10.596 152.398 10.836C151.918 11.076 151.528 11.424 151.228 11.88C150.94 12.336 150.796 12.888 150.796 13.536C150.796 14.184 150.94 14.736 151.228 15.192C151.516 15.636 151.9 15.978 152.38 16.218C152.872 16.446 153.412 16.56 154 16.56ZM161.024 9.036H163.058V18H161.024V9.036ZM166.856 8.838C167.384 8.838 167.87 8.91 168.314 9.054C168.758 9.198 169.136 9.42 169.448 9.72C169.772 10.008 170.018 10.374 170.186 10.818C170.366 11.25 170.456 11.76 170.456 12.348V18H168.422V12.744C168.422 12.012 168.242 11.472 167.882 11.124C167.534 10.764 166.976 10.584 166.208 10.584C165.632 10.584 165.104 10.71 164.624 10.962C164.156 11.202 163.772 11.52 163.472 11.916C163.172 12.3 162.998 12.72 162.95 13.176L162.932 12.204C162.992 11.76 163.124 11.34 163.328 10.944C163.532 10.536 163.802 10.176 164.138 9.864C164.474 9.54 164.87 9.288 165.326 9.108C165.794 8.928 166.304 8.838 166.856 8.838ZM174.074 8.838C174.602 8.838 175.082 8.91 175.514 9.054C175.958 9.198 176.342 9.42 176.666 9.72C176.99 10.008 177.242 10.374 177.422 10.818C177.602 11.25 177.692 11.76 177.692 12.348V18H175.64V12.744C175.64 12.012 175.46 11.472 175.1 11.124C174.752 10.764 174.194 10.584 173.426 10.584C172.85 10.584 172.322 10.71 171.842 10.962C171.362 11.202 170.972 11.52 170.672 11.916C170.384 12.3 170.216 12.72 170.168 13.176L170.132 12.168C170.192 11.736 170.33 11.322 170.546 10.926C170.762 10.53 171.038 10.176 171.374 9.864C171.722 9.54 172.124 9.288 172.58 9.108C173.036 8.928 173.534 8.838 174.074 8.838ZM184.34 18V6.336H190.352C191.792 6.336 192.896 6.606 193.664 7.146C194.432 7.674 194.816 8.442 194.816 9.45C194.816 10.098 194.666 10.614 194.366 10.998C194.066 11.37 193.646 11.652 193.106 11.844C192.566 12.024 191.924 12.138 191.18 12.186L191.252 12.078C191.792 12.09 192.302 12.138 192.782 12.222C193.262 12.294 193.682 12.426 194.042 12.618C194.414 12.81 194.702 13.08 194.906 13.428C195.122 13.764 195.23 14.202 195.23 14.742C195.23 15.462 195.05 16.056 194.69 16.524C194.33 16.992 193.826 17.352 193.178 17.604C192.542 17.844 191.804 17.976 190.964 18H184.34ZM186.41 16.236H190.676C191.456 16.236 192.056 16.104 192.476 15.84C192.908 15.564 193.124 15.138 193.124 14.562C193.124 14.118 192.992 13.794 192.728 13.59C192.476 13.386 192.14 13.254 191.72 13.194C191.3 13.134 190.862 13.104 190.406 13.104H186.41V16.236ZM186.41 11.376H190.226C191.006 11.376 191.606 11.244 192.026 10.98C192.458 10.704 192.674 10.278 192.674 9.702C192.674 9.126 192.458 8.718 192.026 8.478C191.606 8.226 191.054 8.1 190.37 8.1H186.41V11.376ZM197.095 9.036H199.129V18H197.095V9.036ZM202.387 10.764C201.727 10.764 201.163 10.902 200.695 11.178C200.239 11.454 199.867 11.79 199.579 12.186C199.303 12.582 199.117 12.96 199.021 13.32L199.003 12.312C199.003 12.18 199.039 11.982 199.111 11.718C199.183 11.442 199.297 11.142 199.453 10.818C199.609 10.494 199.813 10.182 200.065 9.882C200.329 9.57 200.653 9.318 201.037 9.126C201.421 8.934 201.871 8.838 202.387 8.838V10.764ZM208.686 18.198C207.678 18.198 206.778 18.018 205.986 17.658C205.194 17.298 204.564 16.77 204.096 16.074C203.64 15.378 203.412 14.532 203.412 13.536C203.412 12.552 203.64 11.712 204.096 11.016C204.564 10.308 205.194 9.768 205.986 9.396C206.778 9.024 207.678 8.838 208.686 8.838C209.694 8.838 210.588 9.024 211.368 9.396C212.16 9.768 212.784 10.308 213.24 11.016C213.696 11.712 213.924 12.552 213.924 13.536C213.924 14.532 213.696 15.378 213.24 16.074C212.784 16.77 212.16 17.298 211.368 17.658C210.588 18.018 209.694 18.198 208.686 18.198ZM208.686 16.56C209.274 16.56 209.808 16.446 210.288 16.218C210.768 15.978 211.152 15.636 211.44 15.192C211.728 14.736 211.872 14.184 211.872 13.536C211.872 12.9 211.728 12.354 211.44 11.898C211.152 11.43 210.768 11.076 210.288 10.836C209.82 10.596 209.286 10.476 208.686 10.476C208.11 10.476 207.576 10.596 207.084 10.836C206.604 11.076 206.214 11.424 205.914 11.88C205.626 12.336 205.482 12.888 205.482 13.536C205.482 14.184 205.626 14.736 205.914 15.192C206.202 15.636 206.586 15.978 207.066 16.218C207.558 16.446 208.098 16.56 208.686 16.56ZM220.516 18.198C219.508 18.198 218.608 18.018 217.816 17.658C217.024 17.298 216.394 16.77 215.926 16.074C215.47 15.378 215.242 14.532 215.242 13.536C215.242 12.552 215.47 11.712 215.926 11.016C216.394 10.308 217.024 9.768 217.816 9.396C218.608 9.024 219.508 8.838 220.516 8.838C221.524 8.838 222.418 9.024 223.198 9.396C223.99 9.768 224.614 10.308 225.07 11.016C225.526 11.712 225.754 12.552 225.754 13.536C225.754 14.532 225.526 15.378 225.07 16.074C224.614 16.77 223.99 17.298 223.198 17.658C222.418 18.018 221.524 18.198 220.516 18.198ZM220.516 16.56C221.104 16.56 221.638 16.446 222.118 16.218C222.598 15.978 222.982 15.636 223.27 15.192C223.558 14.736 223.702 14.184 223.702 13.536C223.702 12.9 223.558 12.354 223.27 11.898C222.982 11.43 222.598 11.076 222.118 10.836C221.65 10.596 221.116 10.476 220.516 10.476C219.94 10.476 219.406 10.596 218.914 10.836C218.434 11.076 218.044 11.424 217.744 11.88C217.456 12.336 217.312 12.888 217.312 13.536C217.312 14.184 217.456 14.736 217.744 15.192C218.032 15.636 218.416 15.978 218.896 16.218C219.388 16.446 219.928 16.56 220.516 16.56ZM227.72 5.436H229.754V18H227.72V5.436ZM236.792 9.036L231.734 13.644L231.788 12.384L237.17 18H234.578L229.808 12.978L233.984 9.036H236.792ZM238.618 5.436H240.652V18H238.618V5.436ZM242.251 9.036H244.411L248.065 17.64L246.301 18L242.251 9.036ZM252.331 9.036L246.535 21.6H244.393L246.877 16.686L250.153 9.036H252.331ZM253.749 9.036H255.783V18H253.749V9.036ZM259.581 8.838C260.109 8.838 260.595 8.91 261.039 9.054C261.483 9.198 261.861 9.42 262.173 9.72C262.497 10.008 262.743 10.374 262.911 10.818C263.091 11.25 263.181 11.76 263.181 12.348V18H261.147V12.744C261.147 12.012 260.967 11.472 260.607 11.124C260.259 10.764 259.701 10.584 258.933 10.584C258.357 10.584 257.829 10.71 257.349 10.962C256.881 11.202 256.497 11.52 256.197 11.916C255.897 12.3 255.723 12.72 255.675 13.176L255.657 12.204C255.717 11.76 255.849 11.34 256.053 10.944C256.257 10.536 256.527 10.176 256.863 9.864C257.199 9.54 257.595 9.288 258.051 9.108C258.519 8.928 259.029 8.838 259.581 8.838Z" fill="#80897B"/>
<path d="M30.432 58.68C29.696 58.84 29.328 59.144 29.328 59.592C29.328 59.784 29.408 60.04 29.568 60.36L35.136 71.544L40.8 59.352C40.832 59.288 40.848 59.192 40.848 59.064C40.848 58.904 40.768 58.792 40.608 58.728C40.448 58.664 40.208 58.6 39.888 58.536L38.64 58.392V57.672H44.16V58.392L42.912 58.584C42.528 58.648 42.256 58.728 42.096 58.824C41.936 58.92 41.776 59.144 41.616 59.496L31.872 81.864H31.008L22.512 65.688L15.456 81.864H14.592L2.976 59.688C2.816 59.4 2.624 59.192 2.4 59.064C2.208 58.936 1.952 58.84 1.632 58.776L0.192 58.392V57.672H14.88V58.392L14.016 58.584C13.28 58.744 12.912 59.08 12.912 59.592C12.912 59.784 12.992 60.04 13.152 60.36L18.72 71.544L21.792 64.344L19.392 59.688C19.232 59.368 19.056 59.144 18.864 59.016C18.704 58.856 18.496 58.744 18.24 58.68L17.088 58.392V57.672H31.68V58.392L30.432 58.68ZM56.6318 68.712C56.6638 72.264 57.2238 74.968 58.3118 76.824C59.4318 78.68 61.5118 79.608 64.5518 79.608C66.0558 79.608 67.3838 79.384 68.5358 78.936C69.7198 78.488 70.9358 77.848 72.1838 77.016L72.8078 77.928C69.8318 80.36 65.8958 81.576 60.9998 81.576C56.5838 81.576 53.0958 80.52 50.5358 78.408C48.0078 76.264 46.7438 73.144 46.7438 69.048C46.7438 65.176 48.0398 62.216 50.6318 60.168C53.2238 58.12 56.8558 57.096 61.5278 57.096C64.1838 57.096 66.4238 57.512 68.2478 58.344C70.0718 59.176 71.4158 60.296 72.2798 61.704C73.1758 63.08 73.6238 64.616 73.6238 66.312C73.6238 67.176 73.5438 67.976 73.3838 68.712H56.6318ZM61.2398 58.248C59.4798 58.248 58.2798 58.984 57.6398 60.456C56.9998 61.928 56.6638 64.264 56.6318 67.464H64.6958V63.864C64.6958 61.912 64.4558 60.488 63.9758 59.592C63.5278 58.696 62.6158 58.248 61.2398 58.248ZM103.347 60.168C104.563 59.304 105.987 58.584 107.619 58.008C109.251 57.4 111.043 57.096 112.995 57.096C116.963 57.096 119.491 58.28 120.579 60.648C121.795 59.656 123.267 58.824 124.995 58.152C126.755 57.448 128.707 57.096 130.851 57.096C133.827 57.096 135.955 57.72 137.235 58.968C138.515 60.216 139.155 62.088 139.155 64.584V78.696C139.155 79.048 139.219 79.288 139.347 79.416C139.507 79.544 139.827 79.656 140.307 79.752L141.987 80.136V81H132.003C131.139 81 130.515 80.776 130.131 80.328C129.747 79.88 129.555 79.208 129.555 78.312V63.72C129.555 62.28 129.315 61.256 128.835 60.648C128.387 60.04 127.619 59.736 126.531 59.736C124.803 59.736 122.963 60.44 121.011 61.848C121.203 62.648 121.299 63.56 121.299 64.584V78.696C121.299 79.048 121.363 79.288 121.491 79.416C121.651 79.544 121.971 79.656 122.451 79.752L124.131 80.136V81H114.147C113.283 81 112.659 80.776 112.275 80.328C111.891 79.88 111.699 79.208 111.699 78.312V63.72C111.699 62.28 111.459 61.256 110.979 60.648C110.531 60.04 109.763 59.736 108.675 59.736C106.979 59.736 105.235 60.376 103.443 61.656V78.696C103.443 79.048 103.507 79.304 103.635 79.464C103.795 79.592 104.099 79.704 104.547 79.8L106.179 80.136V81H91.0114V80.136L92.6914 79.752C93.1714 79.656 93.4754 79.544 93.6034 79.416C93.7634 79.288 93.8434 79.048 93.8434 78.696V60.552C93.8434 60.2 93.7634 59.96 93.6034 59.832C93.4754 59.704 93.1714 59.592 92.6914 59.496L91.0114 59.112V58.248L102.531 56.808H103.347V60.168ZM163.127 81C162.231 81 161.591 80.824 161.207 80.472C160.855 80.088 160.679 79.464 160.679 78.6V78.36C158.535 80.44 155.479 81.48 151.511 81.48C149.431 81.48 147.799 81.016 146.615 80.088C145.463 79.128 144.887 77.656 144.887 75.672C144.887 73.688 145.463 72.136 146.615 71.016C147.799 69.896 149.511 69.096 151.751 68.616C153.991 68.136 156.967 67.848 160.679 67.752V64.248C160.679 62.456 160.327 61.176 159.623 60.408C158.919 59.608 157.687 59.208 155.927 59.208C154.455 59.208 153.079 59.416 151.799 59.832C150.551 60.216 149.271 60.808 147.959 61.608L147.335 60.696C148.871 59.608 150.711 58.744 152.855 58.104C155.031 57.432 157.463 57.096 160.151 57.096C163.767 57.096 166.343 57.816 167.879 59.256C169.415 60.664 170.182 62.712 170.182 65.4V78.696C170.182 79.048 170.247 79.288 170.375 79.416C170.535 79.544 170.855 79.656 171.335 79.752L173.015 80.136V81H163.127ZM156.887 78.456C158.263 78.456 159.527 77.912 160.679 76.824V69.048C158.887 69.176 157.527 69.464 156.599 69.912C155.671 70.328 155.031 70.936 154.679 71.736C154.359 72.536 154.199 73.624 154.199 75C154.199 76.216 154.407 77.096 154.823 77.64C155.271 78.184 155.959 78.456 156.887 78.456ZM197.089 61.416C197.089 59.848 196.577 59 195.553 58.872L195.025 58.824V57.96C196.945 57.384 198.817 57.096 200.641 57.096C202.529 57.096 203.841 57.432 204.577 58.104C205.313 58.776 205.681 59.752 205.681 61.032C205.681 62.792 205.009 64.392 203.665 65.832C202.321 67.272 199.969 68.232 196.609 68.712C197.473 68.936 198.193 69.272 198.769 69.72C199.345 70.168 200.001 70.856 200.737 71.784L206.065 78.792C206.353 79.144 206.593 79.4 206.785 79.56C206.977 79.688 207.249 79.784 207.601 79.848L209.089 80.136V81H199.873C199.009 81 198.337 80.872 197.857 80.616C197.377 80.328 196.961 79.912 196.609 79.368L189.169 69H187.537V78.696C187.537 79.048 187.601 79.304 187.729 79.464C187.889 79.592 188.193 79.704 188.641 79.8L190.273 80.136V81H175.105V80.136L176.785 79.752C177.265 79.656 177.569 79.544 177.697 79.416C177.857 79.288 177.937 79.048 177.937 78.696V49.704C177.937 49.352 177.857 49.112 177.697 48.984C177.569 48.856 177.265 48.744 176.785 48.648L175.105 48.264V47.4L186.625 45.96H187.537V67.752H190.321C192.849 67.752 194.609 67.208 195.601 66.12C196.593 65 197.089 63.432 197.089 61.416ZM222.147 68.712C222.179 72.264 222.739 74.968 223.827 76.824C224.947 78.68 227.027 79.608 230.067 79.608C231.571 79.608 232.899 79.384 234.051 78.936C235.235 78.488 236.451 77.848 237.699 77.016L238.323 77.928C235.347 80.36 231.411 81.576 226.515 81.576C222.099 81.576 218.611 80.52 216.051 78.408C213.523 76.264 212.259 73.144 212.259 69.048C212.259 65.176 213.555 62.216 216.147 60.168C218.739 58.12 222.371 57.096 227.043 57.096C229.699 57.096 231.939 57.512 233.763 58.344C235.587 59.176 236.931 60.296 237.795 61.704C238.691 63.08 239.139 64.616 239.139 66.312C239.139 67.176 239.059 67.976 238.899 68.712H222.147ZM226.755 58.248C224.995 58.248 223.795 58.984 223.155 60.456C222.515 61.928 222.179 64.264 222.147 67.464H230.211V63.864C230.211 61.912 229.971 60.488 229.491 59.592C229.043 58.696 228.131 58.248 226.755 58.248ZM269.391 58.68C268.655 58.84 268.287 59.144 268.287 59.592C268.287 59.784 268.367 60.04 268.527 60.36L274.095 71.544L279.327 59.352C279.423 59.16 279.471 59 279.471 58.872C279.471 58.68 279.263 58.568 278.847 58.536L277.599 58.392V57.672H283.119V58.392L281.871 58.584C281.487 58.648 281.215 58.728 281.055 58.824C280.895 58.92 280.735 59.144 280.575 59.496L271.215 81C269.935 83.976 268.879 86.152 268.047 87.528C267.247 88.936 266.335 90.008 265.311 90.744C264.319 91.512 262.975 92.104 261.279 92.52L258.687 85.224C260.863 85.128 262.927 84.76 264.879 84.12C266.831 83.512 268.511 82.728 269.919 81.768L258.351 59.688C258.191 59.4 257.999 59.192 257.775 59.064C257.583 58.936 257.327 58.84 257.007 58.776L255.567 58.392V57.672H270.639V58.392L269.391 58.68ZM315.665 69.336C315.665 73.464 314.369 76.536 311.777 78.552C309.217 80.568 305.521 81.576 300.689 81.576C295.857 81.576 292.145 80.568 289.553 78.552C286.993 76.536 285.713 73.464 285.713 69.336C285.713 65.208 286.993 62.136 289.553 60.12C292.145 58.104 295.857 57.096 300.689 57.096C305.521 57.096 309.217 58.104 311.777 60.12C314.369 62.136 315.665 65.208 315.665 69.336ZM295.697 69.336C295.697 72.184 295.825 74.376 296.081 75.912C296.369 77.448 296.865 78.568 297.569 79.272C298.273 79.976 299.313 80.328 300.689 80.328C302.065 80.328 303.105 79.976 303.809 79.272C304.513 78.568 304.993 77.448 305.249 75.912C305.537 74.376 305.681 72.184 305.681 69.336C305.681 66.488 305.537 64.296 305.249 62.76C304.993 61.224 304.513 60.104 303.809 59.4C303.105 58.696 302.065 58.344 300.689 58.344C299.313 58.344 298.273 58.696 297.569 59.4C296.865 60.104 296.369 61.224 296.081 62.76C295.825 64.296 295.697 66.488 295.697 69.336ZM340.271 60.552C340.271 60.2 340.191 59.96 340.031 59.832C339.903 59.704 339.599 59.592 339.119 59.496L337.439 59.112V58.248L349.055 56.808H349.871V78.696C349.871 79.048 349.935 79.288 350.063 79.416C350.223 79.544 350.543 79.656 351.023 79.752L352.703 80.136V81H342.959C342.031 81 341.359 80.808 340.943 80.424C340.559 80.008 340.367 79.368 340.367 78.504V77.976C339.215 78.968 337.759 79.816 335.999 80.52C334.239 81.224 332.287 81.576 330.143 81.576C327.167 81.576 325.039 80.952 323.759 79.704C322.479 78.456 321.839 76.584 321.839 74.088V60.552C321.839 60.2 321.759 59.96 321.599 59.832C321.471 59.704 321.167 59.592 320.687 59.496L319.007 59.112V58.248L330.623 56.808H331.439V74.952C331.439 76.392 331.663 77.416 332.111 78.024C332.591 78.632 333.375 78.936 334.463 78.936C336.383 78.936 338.319 78.136 340.271 76.536V60.552Z" fill="#444B40"/>
<path d="M22.72 140.48H79.04V155.68H22.72V140.48ZM76.8 122.8H96.8V174H76.8V122.8ZM5.6 122.8H25.6V174H5.6V122.8ZM121.142 166.24V154.24H175.862V166.24H121.142ZM103.222 174L137.542 122.8H159.782L194.422 174H172.422L142.742 128.16H154.662L125.222 174H103.222ZM219.394 160.8V146.8H259.314C260.914 146.8 262.248 146.56 263.314 146.08C264.434 145.547 264.994 144.453 264.994 142.8C264.994 141.093 264.434 140 263.314 139.52C262.248 139.04 260.914 138.8 259.314 138.8H220.674V174H200.674V122.8H256.194C260.194 122.8 263.928 123.093 267.394 123.68C270.914 124.213 273.981 125.2 276.594 126.64C279.208 128.08 281.261 130.107 282.754 132.72C284.248 135.333 284.994 138.693 284.994 142.8C284.994 146.907 284.248 150.16 282.754 152.56C281.261 154.96 279.208 156.747 276.594 157.92C273.981 159.093 270.914 159.867 267.394 160.24C263.928 160.613 260.194 160.8 256.194 160.8H219.394ZM313.535 160.8V146.8H353.455C355.055 146.8 356.388 146.56 357.455 146.08C358.575 145.547 359.135 144.453 359.135 142.8C359.135 141.093 358.575 140 357.455 139.52C356.388 139.04 355.055 138.8 353.455 138.8H314.815V174H294.815V122.8H350.335C354.335 122.8 358.068 123.093 361.535 123.68C365.055 124.213 368.122 125.2 370.735 126.64C373.348 128.08 375.402 130.107 376.895 132.72C378.388 135.333 379.135 138.693 379.135 142.8C379.135 146.907 378.388 150.16 376.895 152.56C375.402 154.96 373.348 156.747 370.735 157.92C368.122 159.093 365.055 159.867 361.535 160.24C358.068 160.613 354.335 160.8 350.335 160.8H313.535ZM464.731 122.8L432.331 160.96V174H412.331V160.96L379.931 122.8H403.531L429.851 156H415.051L441.131 122.8H464.731Z" fill="#DF638D"/>
</svg>
