<svg width="262" height="99" viewBox="0 0 262 99" fill="none" xmlns="http://www.w3.org/2000/svg">
<path d="M0 45.1032H8.76008C8.90982 45.5525 9.34836 45.9375 10.0757 46.2584C10.803 46.5579 11.7764 46.7932 12.9957 46.9644C14.2365 47.1141 15.6697 47.189 17.2955 47.189C18.8999 47.189 20.1621 47.1462 21.0819 47.0606C22.0232 46.9537 22.6863 46.7825 23.0714 46.5472C23.4565 46.2905 23.649 45.9482 23.649 45.5204C23.649 45.1139 23.3388 44.8037 22.7184 44.5898C22.0981 44.3545 20.9964 44.194 19.4134 44.1085C17.8303 44.0229 15.6056 43.9801 12.739 43.9801C10.5998 43.9801 8.74938 43.8839 7.18775 43.6913C5.64752 43.4774 4.37469 43.1565 3.36926 42.7287C2.38522 42.2794 1.65789 41.7232 1.18726 41.0601C0.716636 40.3755 0.481323 39.5626 0.481323 38.6213C0.481323 36.9955 1.02682 35.6585 2.11782 34.6102C3.23021 33.5406 4.8988 32.7491 7.12358 32.2357C9.36975 31.7009 12.1721 31.4335 15.5307 31.4335C20.4509 31.4335 24.2052 32.1501 26.7936 33.5834C29.4035 34.9953 30.7084 37.0383 30.7084 39.7123H22.3976C22.2906 39.0064 21.6274 38.4716 20.4081 38.1079C19.1887 37.7228 17.456 37.5303 15.2098 37.5303C12.985 37.5303 11.3271 37.6587 10.2361 37.9154C9.16652 38.1721 8.63172 38.6106 8.63172 39.231C8.63172 39.5519 8.78147 39.8086 9.08096 40.0011C9.38045 40.1937 9.89386 40.3541 10.6212 40.4825C11.3699 40.5894 12.4181 40.6643 13.7658 40.7071C15.1135 40.7499 16.8249 40.7713 18.8999 40.7713C21.1889 40.7713 23.1356 40.8889 24.74 41.1242C26.3444 41.3382 27.6386 41.6697 28.6227 42.119C29.6281 42.5682 30.3554 43.1458 30.8047 43.8518C31.2539 44.5363 31.4785 45.3492 31.4785 46.2905C31.4785 47.9163 30.9651 49.2427 29.9383 50.2695C28.9115 51.2963 27.2857 52.0558 25.0609 52.5478C22.8361 53.0398 19.9268 53.2858 16.3329 53.2858C14.3006 53.2858 12.4288 53.1682 10.7175 52.9328C9.02748 52.6975 7.51933 52.3553 6.19302 51.906C4.86671 51.4354 3.74362 50.8685 2.82376 50.2053C1.9039 49.5208 1.19796 48.7613 0.70594 47.927C0.235313 47.0713 0 46.1301 0 45.1032Z" fill="url(#paint0_linear_508_43)"/>
<path d="M33.7139 32.1073H67.0856V38.2042H33.7139V32.1073ZM46.3887 37.787H54.4108V52.6441H46.3887V37.787Z" fill="url(#paint1_linear_508_43)"/>
<path d="M71.3767 49.5315V44.7182H93.325V49.5315H71.3767ZM64.1889 52.6441L77.9547 32.1073H86.8753L100.769 52.6441H91.9452L80.0405 34.2573H84.8216L73.0132 52.6441H64.1889Z" fill="url(#paint2_linear_508_43)"/>
<path d="M103.342 52.6441V32.1073H128.146C130.092 32.1073 131.836 32.332 133.376 32.7812C134.938 33.209 135.958 33.9684 136.856 34.9953C136.678 34.7969 135.022 35.0646 135.252 35.7975C135.465 36.4793 134.449 34.9417 134.449 35.7975C134.449 36.833 134.493 36.8434 133.647 37.4019C132.913 37.8867 133.391 38.5884 132.329 38.8459C131.416 39.0675 129.79 42.0773 128.834 42.2152C127.203 42.4506 128.26 43.5193 127.23 43.8196C124.373 44.6526 126.566 46.8681 123.91 46.8681H111.364V52.6441H103.342ZM111.364 41.5093H128.146C128.787 41.5093 129.322 41.4023 129.75 41.1884C130.199 40.9745 130.424 40.568 130.424 39.969C130.424 39.4128 130.199 39.0385 129.75 38.8459C129.322 38.632 128.787 38.5251 128.146 38.5251H111.364V41.5093Z" fill="url(#paint3_linear_508_43)"/>
<path d="M144.43 70.7879C146.234 70.7879 147.635 70.4455 148.634 69.7608C149.633 69.0761 150.133 68.0901 150.133 66.8028C150.133 65.762 149.897 64.8992 149.425 64.2145C148.981 63.5297 148.287 62.8998 147.344 62.3246C146.4 61.7494 145.012 61.0647 143.181 60.2704C140.849 59.257 139.045 58.3669 137.769 57.6C136.492 56.8057 135.479 55.8197 134.73 54.6419C134.008 53.4368 133.647 51.9167 133.647 50.0816C133.647 47.4523 134.591 45.4803 136.478 44.1656C138.365 42.8235 141.363 42.1525 145.47 42.1525C147.302 42.1525 149.065 42.3305 150.757 42.6866C152.478 43.0426 153.921 43.4945 155.087 44.0423L154.088 50.3282H152.964C152.437 48.6574 151.882 47.329 151.299 46.343C150.744 45.357 149.98 44.6038 149.009 44.0834C148.038 43.5356 146.747 43.2617 145.137 43.2617C141.474 43.2617 139.642 44.4395 139.642 46.7949C139.642 47.7536 139.864 48.5479 140.308 49.1778C140.752 49.8078 141.418 50.3829 142.306 50.9033C143.195 51.3963 144.666 52.1358 146.719 53.1218L147.552 53.4916C150.133 54.7241 152.034 55.7238 153.255 56.4907C154.504 57.2576 155.489 58.2162 156.211 59.3666C156.933 60.4895 157.293 61.9549 157.293 63.7626C157.293 66.4467 156.267 68.4735 154.213 69.843C152.187 71.2124 148.995 71.8972 144.638 71.8972C142.889 71.8972 140.947 71.7054 138.809 71.322C136.7 70.9385 135.063 70.4729 133.897 69.9251L135.021 62.6944H136.103C136.464 64.8307 137.005 66.4878 137.727 67.6655C138.449 68.8433 139.351 69.6649 140.433 70.1305C141.515 70.5688 142.848 70.7879 144.43 70.7879Z" fill="#444B40"/>
<path d="M176.932 71.4041C176.155 71.4041 175.6 71.2535 175.267 70.9522C174.962 70.6236 174.809 70.0895 174.809 69.35V69.1445C172.949 70.9248 170.299 71.815 166.857 71.815C165.053 71.815 163.638 71.4178 162.611 70.6236C161.612 69.8019 161.112 68.542 161.112 66.8438C161.112 65.1457 161.612 63.8173 162.611 62.8587C163.638 61.9001 165.123 61.2154 167.066 60.8045C169.008 60.3937 171.589 60.1472 174.809 60.065V57.0659C174.809 55.5321 174.504 54.4365 173.893 53.7792C173.282 53.0945 172.214 52.7521 170.687 52.7521C169.411 52.7521 168.217 52.9301 167.107 53.2862C166.025 53.6149 164.915 54.1216 163.777 54.8063L163.236 54.0257C164.568 53.0945 166.164 52.355 168.023 51.8072C169.91 51.232 172.02 50.9444 174.351 50.9444C177.487 50.9444 179.721 51.5607 181.054 52.7932C182.386 53.9983 183.052 55.7512 183.052 58.0519V69.4321C183.052 69.7334 183.107 69.9388 183.218 70.0484C183.357 70.1579 183.635 70.2538 184.051 70.336L185.508 70.6646V71.4041H176.932ZM171.52 69.2267C172.714 69.2267 173.81 68.7611 174.809 67.8299V61.1743C173.255 61.2838 172.075 61.5303 171.27 61.9138C170.465 62.2698 169.91 62.7902 169.605 63.475C169.328 64.1597 169.189 65.0909 169.189 66.2687C169.189 67.3095 169.369 68.0627 169.73 68.5283C170.119 68.9939 170.715 69.2267 171.52 69.2267Z" fill="#444B40"/>
<path d="M187.321 70.6646L188.778 70.336C189.195 70.2538 189.458 70.1579 189.569 70.0484C189.708 69.9388 189.777 69.7334 189.777 69.4321V44.6175C189.777 44.3162 189.708 44.1108 189.569 44.0012C189.458 43.8917 189.195 43.7958 188.778 43.7137L187.321 43.385V42.6455L197.313 41.413H198.104V69.4321C198.104 69.7334 198.159 69.9388 198.27 70.0484C198.409 70.1579 198.686 70.2538 199.103 70.336L200.56 70.6646V71.4041H187.321V70.6646Z" fill="#444B40"/>
<path d="M229.627 61.4208C229.627 64.954 228.503 67.5833 226.255 69.3089C224.034 71.0344 220.829 71.8972 216.638 71.8972C212.447 71.8972 209.228 71.0344 206.98 69.3089C204.759 67.5833 203.649 64.954 203.649 61.4208C203.649 57.8876 204.759 55.2582 206.98 53.5327C209.228 51.8072 212.447 50.9444 216.638 50.9444C220.829 50.9444 224.034 51.8072 226.255 53.5327C228.503 55.2582 229.627 57.8876 229.627 61.4208ZM212.308 61.4208C212.308 63.8584 212.419 65.7346 212.641 67.0493C212.891 68.3639 213.321 69.3226 213.932 69.9251C214.543 70.5277 215.445 70.829 216.638 70.829C217.831 70.829 218.733 70.5277 219.344 69.9251C219.955 69.3226 220.371 68.3639 220.593 67.0493C220.843 65.7346 220.968 63.8584 220.968 61.4208C220.968 58.9831 220.843 57.107 220.593 55.7923C220.371 54.4776 219.955 53.519 219.344 52.9164C218.733 52.3139 217.831 52.0126 216.638 52.0126C215.445 52.0126 214.543 52.3139 213.932 52.9164C213.321 53.519 212.891 54.4776 212.641 55.7923C212.419 57.107 212.308 58.9831 212.308 61.4208Z" fill="#444B40"/>
<path d="M259.544 69.4321C259.544 69.7334 259.599 69.9388 259.71 70.0484C259.849 70.1579 260.127 70.2538 260.543 70.336L262 70.6646V71.4041H253.341C252.592 71.4041 252.05 71.2124 251.717 70.829C251.384 70.4455 251.218 69.8703 251.218 69.1034V56.614C251.218 55.3815 251.01 54.505 250.593 53.9846C250.205 53.4642 249.539 53.204 248.595 53.204C246.93 53.204 245.223 53.8887 243.474 55.2582V69.4321C243.474 69.7334 243.53 69.9525 243.641 70.0895C243.78 70.199 244.043 70.2949 244.432 70.377L245.847 70.6646V71.4041H232.692V70.6646L234.149 70.336C234.565 70.2538 234.829 70.1579 234.94 70.0484C235.079 69.9388 235.148 69.7334 235.148 69.4321V53.9024C235.148 53.6012 235.079 53.3957 234.94 53.2862C234.829 53.1766 234.565 53.0808 234.149 52.9986L232.692 52.6699V51.9304L242.683 50.6979H243.391V54.0257C244.446 53.1766 245.736 52.4508 247.263 51.8483C248.789 51.2457 250.482 50.9444 252.342 50.9444C254.923 50.9444 256.768 51.4785 257.879 52.5467C258.989 53.6149 259.544 55.2171 259.544 57.3535V69.4321Z" fill="#444B40"/>
<path fill-rule="evenodd" clip-rule="evenodd" d="M169.981 0.734963C170.295 1.04825 170.295 1.55619 169.981 1.86947L83.9106 87.9416H90.4579C90.9009 87.9416 91.2601 88.3007 91.2601 88.7438C91.2601 89.1868 90.9009 89.546 90.4579 89.546H83.4406L89.0834 95.1888C89.3967 95.5021 89.3967 96.0101 89.0834 96.3233C88.7701 96.6366 88.2622 96.6366 87.9489 96.3233L82.3062 90.6806V97.6978C82.3062 98.1408 81.947 98.5 81.504 98.5C81.0609 98.5 80.7018 98.1408 80.7018 97.6978V91.1504L75.7809 96.0713C75.4676 96.3846 74.9597 96.3846 74.6464 96.0713C74.3332 95.758 74.3332 95.2501 74.6464 94.9368L80.0372 89.546H73.4819C73.0389 89.546 72.6797 89.1868 72.6797 88.7438C72.6797 88.3007 73.0389 87.9416 73.4819 87.9416H79.5672L74.8514 83.2257C74.5381 82.9124 74.5381 82.4044 74.8514 82.0911C75.1647 81.7779 75.6726 81.7779 75.9859 82.0911L80.7018 86.8071V80.7216C80.7018 80.2785 81.0609 79.9194 81.504 79.9194C81.947 79.9194 82.3062 80.2785 82.3062 80.7216V87.2769L168.847 0.734963C169.16 0.421679 169.668 0.421679 169.981 0.734963Z" fill="#444B40"/>
<defs>
<linearGradient id="paint0_linear_508_43" x1="108.779" y1="-9.9288" x2="3.68898" y2="76.7091" gradientUnits="userSpaceOnUse">
<stop stop-color="#C5C573"/>
<stop offset="1" stop-color="#DF638D"/>
</linearGradient>
<linearGradient id="paint1_linear_508_43" x1="108.779" y1="-9.9288" x2="3.68898" y2="76.7091" gradientUnits="userSpaceOnUse">
<stop stop-color="#C5C573"/>
<stop offset="1" stop-color="#DF638D"/>
</linearGradient>
<linearGradient id="paint2_linear_508_43" x1="108.779" y1="-9.9288" x2="3.68898" y2="76.7091" gradientUnits="userSpaceOnUse">
<stop stop-color="#C5C573"/>
<stop offset="1" stop-color="#DF638D"/>
</linearGradient>
<linearGradient id="paint3_linear_508_43" x1="108.779" y1="-9.9288" x2="3.68898" y2="76.7091" gradientUnits="userSpaceOnUse">
<stop stop-color="#C5C573"/>
<stop offset="1" stop-color="#DF638D"/>
</linearGradient>
</defs>
</svg>
